<svg xmlns="http://www.w3.org/2000/svg" viewBox="0 0 256 256">
  <defs>
    <linearGradient id="dbBody" x1="0" y1="0" x2="0" y2="1">
      <stop offset="0%" stop-color="#2B7A78"/>
      <stop offset="50%" stop-color="#236563"/>
      <stop offset="100%" stop-color="#1A5553"/>
    </linearGradient>
    <linearGradient id="dbTop" x1="0" y1="0" x2="0" y2="1">
      <stop offset="0%" stop-color="#4DD8D1"/>
      <stop offset="100%" stop-color="#2B7A78"/>
    </linearGradient>
    <linearGradient id="dbBottom" x1="0" y1="0" x2="0" y2="1">
      <stop offset="0%" stop-color="#1A5553"/>
      <stop offset="100%" stop-color="#133F3D"/>
    </linearGradient>
    <radialGradient id="eyeGlowL" cx="50%" cy="50%">
      <stop offset="0%" stop-color="#F7B32B" stop-opacity="0.45"/>
      <stop offset="100%" stop-color="#F7B32B" stop-opacity="0"/>
    </radialGradient>
    <radialGradient id="eyeGlowR" cx="50%" cy="50%">
      <stop offset="0%" stop-color="#F7B32B" stop-opacity="0.45"/>
      <stop offset="100%" stop-color="#F7B32B" stop-opacity="0"/>
    </radialGradient>
    <radialGradient id="antennaGlow" cx="50%" cy="50%">
      <stop offset="0%" stop-color="#FFD166" stop-opacity="0.7"/>
      <stop offset="35%" stop-color="#F7B32B" stop-opacity="0.25"/>
      <stop offset="100%" stop-color="#F7B32B" stop-opacity="0"/>
    </radialGradient>
    <radialGradient id="groundShadow" cx="50%" cy="50%">
      <stop offset="0%" stop-color="#000000" stop-opacity="0.2"/>
      <stop offset="70%" stop-color="#000000" stop-opacity="0.06"/>
      <stop offset="100%" stop-color="#000000" stop-opacity="0"/>
    </radialGradient>
  </defs>
  <ellipse cx="128" cy="242" rx="80" ry="12" fill="url(#groundShadow)"/>
  <rect x="10" y="118" width="30" height="36" rx="10" ry="10" fill="#1F5B59"/>
  <rect x="216" y="118" width="30" height="36" rx="10" ry="10" fill="#1F5B59"/>
  <rect x="14" y="122" width="10" height="20" rx="5" ry="5" fill="#2B7A78" opacity="0.4"/>
  <rect x="232" y="122" width="10" height="20" rx="5" ry="5" fill="#2B7A78" opacity="0.4"/>
  <rect x="32" y="78" width="192" height="148" fill="url(#dbBody)"/>
  <ellipse cx="128" cy="226" rx="96" ry="28" fill="url(#dbBottom)"/>
  <ellipse cx="128" cy="78" rx="96" ry="32" fill="url(#dbTop)" stroke="#1A5553" stroke-width="1.5"/>
  <ellipse cx="100" cy="68" rx="48" ry="12" fill="#FFFFFF" opacity="0.12"/>
  <ellipse cx="128" cy="152" rx="96" ry="16" fill="none" stroke="#3AAFA9" stroke-width="2.5" opacity="0.45"/>
  <ellipse cx="128" cy="192" rx="96" ry="16" fill="none" stroke="#3AAFA9" stroke-width="2" opacity="0.3"/>
  <circle cx="90" cy="122" r="36" fill="url(#eyeGlowL)"/>
  <circle cx="166" cy="122" r="36" fill="url(#eyeGlowR)"/>
  <ellipse cx="90" cy="122" rx="26" ry="24" fill="#0D2B2A"/>
  <ellipse cx="166" cy="122" rx="26" ry="24" fill="#0D2B2A"/>
  <circle cx="90" cy="122" r="17" fill="#112E2D"/>
  <circle cx="166" cy="122" r="17" fill="#112E2D"/>
  <circle cx="93" cy="119" r="11" fill="#F7B32B"/>
  <circle cx="169" cy="119" r="11" fill="#F7B32B"/>
  <circle cx="93" cy="119" r="7" fill="#FFD166" opacity="0.6"/>
  <circle cx="169" cy="119" r="7" fill="#FFD166" opacity="0.6"/>
  <circle cx="95" cy="117" r="4" fill="#0D2B2A"/>
  <circle cx="171" cy="117" r="4" fill="#0D2B2A"/>
  <circle cx="98" cy="113" r="3.5" fill="#FFFFFF" opacity="0.9"/>
  <circle cx="174" cy="113" r="3.5" fill="#FFFFFF" opacity="0.9"/>
  <circle cx="88" cy="126" r="2" fill="#FFFFFF" opacity="0.25"/>
  <circle cx="164" cy="126" r="2" fill="#FFFFFF" opacity="0.25"/>
  <path d="M102 162 Q128 182, 154 162" fill="none" stroke="#0D2B2A" stroke-width="5.5" stroke-linecap="round"/>
  <ellipse cx="60" cy="140" rx="11" ry="8" fill="#F7B32B" opacity="0.22"/>
  <ellipse cx="196" cy="140" rx="11" ry="8" fill="#F7B32B" opacity="0.22"/>
  <line x1="128" y1="72" x2="128" y2="24" stroke="#1F5B59" stroke-width="7" stroke-linecap="round"/>
  <line x1="126" y1="70" x2="126" y2="26" stroke="#2B7A78" stroke-width="2.5" stroke-linecap="round" opacity="0.5"/>
  <circle cx="128" cy="20" r="24" fill="url(#antennaGlow)"/>
  <circle cx="128" cy="20" r="12" fill="#F7B32B"/>
  <circle cx="128" cy="20" r="7.5" fill="#FFD166"/>
  <circle cx="124" cy="16" r="3.5" fill="#FFFFFF" opacity="0.6"/>
</svg>