<svg xmlns="http://www.w3.org/2000/svg" viewBox="0 0 256 256">
  <defs>
    <linearGradient id="dbBody" x1="0" y1="0" x2="0" y2="1">
      <stop offset="0%" stop-color="#2E8583"/>
      <stop offset="100%" stop-color="#1A5553"/>
    </linearGradient>
    <linearGradient id="dbTop" x1="0" y1="0" x2="0" y2="1">
      <stop offset="0%" stop-color="#4DD8D1"/>
      <stop offset="100%" stop-color="#2B7A78"/>
    </linearGradient>
  </defs>
  <!-- Ears - tiny nubs -->
  <rect x="6" y="112" width="34" height="46" rx="14" ry="14" fill="#1C5250"/>
  <rect x="216" y="112" width="34" height="46" rx="14" ry="14" fill="#1C5250"/>
  <!-- Body - simple cylinder -->
  <rect x="30" y="68" width="196" height="165" rx="6" ry="6" fill="url(#dbBody)"/>
  <ellipse cx="128" cy="233" rx="98" ry="22" fill="#143E3D"/>
  <ellipse cx="128" cy="68" rx="98" ry="36" fill="url(#dbTop)"/>
  <!-- Eyes - maximum size golden circles -->
  <circle cx="86" cy="125" r="32" fill="#0D2B2A"/>
  <circle cx="170" cy="125" r="32" fill="#0D2B2A"/>
  <circle cx="89" cy="122" r="22" fill="#F7B32B"/>
  <circle cx="173" cy="122" r="22" fill="#F7B32B"/>
  <circle cx="89" cy="122" r="14" fill="#FFD166" opacity="0.55"/>
  <circle cx="173" cy="122" r="14" fill="#FFD166" opacity="0.55"/>
  <!-- Pupil -->
  <circle cx="94" cy="118" r="7" fill="#0D2B2A"/>
  <circle cx="178" cy="118" r="7" fill="#0D2B2A"/>
  <!-- Shine -->
  <circle cx="99" cy="113" r="6" fill="#FFFFFF" opacity="0.75"/>
  <circle cx="183" cy="113" r="6" fill="#FFFFFF" opacity="0.75"/>
  <!-- Smile - very thick simple arc -->
  <path d="M90 170 Q128 200, 166 170" fill="none" stroke="#0D2B2A" stroke-width="12" stroke-linecap="round"/>
  <!-- Antenna - big ball -->
  <line x1="128" y1="60" x2="128" y2="16" stroke="#1C5250" stroke-width="14" stroke-linecap="round"/>
  <circle cx="128" cy="12" r="18" fill="#F7B32B"/>
  <circle cx="128" cy="12" r="11" fill="#FFD166"/>
</svg>